<?xml version="1.0" standalone="no"?>
<!DOCTYPE svg PUBLIC "-//W3C//DTD SVG 20010904//EN"
 "http://www.w3.org/TR/2001/REC-SVG-20010904/DTD/svg10.dtd">
<svg version="1.0" xmlns="http://www.w3.org/2000/svg"
 width="306.000000pt" height="130.000000pt" viewBox="0 0 306.000000 130.000000"
 preserveAspectRatio="xMidYMid meet">

<g transform="translate(0.000000,130.000000) scale(0.100000,-0.100000)"
fill="#000000" stroke="none">
<path d="M0 650 l0 -650 1530 0 1530 0 0 650 0 650 -1530 0 -1530 0 0 -650z
m2835 385 l25 -24 0 -361 0 -361 -25 -24 -24 -25 -651 0 -651 0 -24 25 -25 24
0 361 0 361 25 24 24 25 651 0 651 0 24 -25z m-2255 -190 l0 -35 -105 0 -105
0 0 -55 0 -55 90 0 90 0 0 -40 0 -40 -90 0 -90 0 0 -60 0 -60 105 0 105 0 0
-35 0 -35 -145 0 -145 0 0 225 0 225 145 0 145 0 0 -35z m480 -90 c28 -18 40
-75 40 -200 l0 -125 -40 0 -40 0 0 116 c0 135 -7 154 -55 154 -55 0 -65 -25
-65 -157 l0 -113 -40 0 -40 0 0 170 0 170 40 0 c22 0 40 -5 40 -11 0 -5 5 -7
12 -3 34 21 113 21 148 -1z m-260 -21 c0 -31 -3 -34 -28 -34 -15 0 -38 -7 -50
-16 -21 -14 -22 -22 -22 -135 l0 -119 -40 0 -40 0 0 169 0 170 90 0 90 0 0
-35z m434 -61 c17 -51 33 -93 36 -93 3 0 19 43 34 95 l29 95 43 0 43 0 -68
-199 c-38 -110 -74 -209 -81 -220 -14 -28 -65 -53 -98 -49 -22 2 -28 9 -30 35
-3 28 0 32 24 35 19 2 34 13 47 35 l19 33 -56 155 c-31 85 -56 160 -56 166 0
6 17 9 42 7 l42 -3 30 -92z"/>
<path d="M1960 665 l0 -235 45 0 45 0 0 235 0 235 -45 0 -45 0 0 -235z"/>
<path d="M1600 655 l0 -225 105 0 c115 0 148 10 184 56 15 19 21 41 21 76 0
41 -5 54 -29 79 -22 21 -26 31 -17 36 44 26 48 109 9 153 -34 38 -79 49 -190
50 l-83 0 0 -225z m198 139 c26 -18 28 -50 5 -76 -12 -13 -30 -18 -70 -18
l-53 0 0 55 0 55 48 0 c27 0 57 -7 70 -16z m19 -190 c17 -24 16 -55 -3 -82
-13 -19 -24 -22 -75 -22 l-59 0 0 66 0 67 62 -6 c43 -4 66 -11 75 -23z"/>
<path d="M2166 751 c-44 -29 -67 -74 -73 -138 -6 -81 24 -139 89 -171 114 -57
223 22 222 159 -1 67 -24 113 -74 146 -43 30 -122 31 -164 4z m133 -66 c35
-34 29 -146 -9 -177 -68 -55 -141 32 -111 133 19 64 77 86 120 44z"/>
<path d="M2493 744 c-39 -30 -56 -79 -55 -155 1 -98 52 -163 125 -164 23 0 52
4 65 8 28 10 28 -2 1 -37 -26 -34 -68 -34 -107 -1 l-29 24 -24 -25 -24 -26 28
-23 c56 -49 143 -53 206 -9 43 31 51 70 51 258 l0 174 -103 1 c-94 0 -105 -2
-134 -25z m141 -60 c12 -11 16 -35 16 -89 0 -65 -3 -76 -22 -89 -58 -41 -108
2 -108 93 0 72 19 101 65 101 18 0 41 -7 49 -16z"/>
</g>
</svg>
